<svg width="35" height="63" viewBox="0 0 35 63" fill="none" xmlns="http://www.w3.org/2000/svg">
<path d="M33.5 13C33.5 16.0056 31.8634 18.8463 28.9799 20.9883C26.0965 23.1302 22.0427 24.5 17.5 24.5C12.9573 24.5 8.90352 23.1302 6.02012 20.9883C3.13664 18.8463 1.5 16.0056 1.5 13C1.5 9.99436 3.13664 7.15374 6.02012 5.01173C8.90352 2.86977 12.9573 1.5 17.5 1.5C22.0427 1.5 26.0965 2.86977 28.9799 5.01173C31.8634 7.15374 33.5 9.99436 33.5 13Z" stroke="black" stroke-width="3"/>
<line x1="1.5" y1="12" x2="1.5" y2="63" stroke="black" stroke-width="3"/>
<line x1="33.5" y1="12" x2="33.5" y2="63" stroke="black" stroke-width="3"/>
<line x1="12.5" y1="25" x2="12.5" y2="63" stroke="black" stroke-width="3"/>
<line x1="22.5" y1="25" x2="22.5" y2="63" stroke="black" stroke-width="3"/>
</svg>
